<svg width="170" height="344" viewBox="0 0 170 344" fill="none" xmlns="http://www.w3.org/2000/svg">
<path d="M0 0C22.5434 2.68827e-07 44.1635 8.95533 60.1041 24.8959C76.0447 40.8365 85 62.4566 85 85C85 107.543 76.0447 129.163 60.1041 145.104C44.1635 161.045 22.5434 170 1.08074e-05 170L0 0Z" fill="black"/>
<path d="M0 173.5C22.5434 173.5 44.1635 182.455 60.1041 198.396C76.0447 214.337 85 235.957 85 258.5C85 281.043 76.0447 302.663 60.1041 318.604C44.1635 334.545 22.5434 343.5 1.08074e-05 343.5L0 173.5Z" fill="black"/>
<path d="M42.5 173.5C65.0434 173.5 86.6635 182.455 102.604 198.396C118.545 214.337 127.5 235.957 127.5 258.5C127.5 281.043 118.545 302.663 102.604 318.604C86.6635 334.545 65.0434 343.5 42.5 343.5L42.5 173.5Z" fill="black"/>
<path d="M85 173.5C107.543 173.5 129.163 182.455 145.104 198.396C161.045 214.337 170 235.957 170 258.5C170 281.043 161.045 302.663 145.104 318.604C129.163 334.545 107.543 343.5 85 343.5L85 258.5V173.5Z" fill="black"/>
<path d="M42.5 0C65.0434 2.68827e-07 86.6635 8.95533 102.604 24.8959C118.545 40.8365 127.5 62.4566 127.5 85C127.5 107.543 118.545 129.163 102.604 145.104C86.6635 161.045 65.0434 170 42.5 170L42.5 0Z" fill="black"/>
</svg>
